<svg xmlns="http://www.w3.org/2000/svg" viewBox="0 0 512 512" width="512" height="512" role="img" aria-label="Korte Music">
  <defs>
    <linearGradient id="bg" x1="0" y1="0" x2="1" y2="1">
      <stop offset="0" stop-color="#FF4D6A"/>
      <stop offset="1" stop-color="#E0183F"/>
    </linearGradient>
    <radialGradient id="shine" cx="0.3" cy="0.25" r="0.9">
      <stop offset="0" stop-color="#fff" stop-opacity="0.22"/>
      <stop offset="0.6" stop-color="#fff" stop-opacity="0"/>
    </radialGradient>
  </defs>
  <rect width="512" height="512" rx="112" fill="url(#bg)"/>
  <rect width="512" height="512" rx="112" fill="url(#shine)"/>
  <!-- vinilo -->
  <circle cx="256" cy="256" r="196" fill="#17090D"/>
  <g fill="none" stroke="#fff" stroke-opacity="0.10" stroke-width="3">
    <circle cx="256" cy="256" r="174"/>
    <circle cx="256" cy="256" r="152"/>
    <circle cx="256" cy="256" r="130"/>
    <circle cx="256" cy="256" r="108"/>
  </g>
  <!-- brillo del vinilo -->
  <path d="M256 256 L298.4 64.6 A196 196 0 0 1 437.1 181.0 Z" fill="#fff" fill-opacity="0.07"/>
  <path d="M256 256 L213.6 447.4 A196 196 0 0 1 74.9 331.0 Z" fill="#fff" fill-opacity="0.07"/>
  <!-- etiqueta central -->
  <circle cx="256" cy="256" r="88" fill="#fff"/>
  <!-- nota musical -->
  <g fill="#E0183F">
    <ellipse cx="240" cy="288" rx="20" ry="15" transform="rotate(-22 240 288)"/>
    <rect x="256" y="212" width="9" height="76" rx="3"/>
    <path d="M265 212 C268 234 296 238 294 266 C287 252 275 251 265 249 Z"/>
  </g>
</svg>
